HIERARCHY
ROOT Hips
{
	OFFSET 0.000000 71.427986 0.000000
	CHANNELS 6 Xposition Yposition Zposition Xrotation Yrotation Zrotation
	JOINT Pelvis
	{
		OFFSET 0.000000 0.000000 0.000000
		CHANNELS 3 Xrotation Yrotation Zrotation
		JOINT LeftUpLeg
		{
			OFFSET 6.797100 -2.508499 -1.318700
			CHANNELS 3 Xrotation Yrotation Zrotation
			JOINT LeftLeg
			{
				OFFSET 0.069008 -29.241863 0.690200
				CHANNELS 3 Xrotation Yrotation Zrotation
				JOINT LeftFoot
				{
					OFFSET -0.069008 -29.568123 -0.266800
					CHANNELS 3 Xrotation Yrotation Zrotation
					JOINT LeftToeBase
					{
						OFFSET 3.145500 -8.631000 16.059900
						CHANNELS 3 Xrotation Yrotation Zrotation
						End Site
						{
							OFFSET 0.000000 18.501587 0.000000
						}
					}
				}
			}
			JOINT Left_ShortSleeve
			{
				OFFSET 0.265923 -10.480953 1.153800
				CHANNELS 3 Xrotation Yrotation Zrotation
				End Site
				{
					OFFSET 1.725763 19.823879 0.000000
				}
			}
		}
		JOINT RightUpLeg
		{
			OFFSET -6.797100 -2.508499 -1.318700
			CHANNELS 3 Xrotation Yrotation Zrotation
			JOINT RightLeg
			{
				OFFSET -0.082453 -29.241932 0.688000
				CHANNELS 3 Xrotation Yrotation Zrotation
				JOINT RightFoot
				{
					OFFSET 0.082453 -29.568058 -0.264600
					CHANNELS 3 Xrotation Yrotation Zrotation
					JOINT RightToeBase
					{
						OFFSET -3.115300 -8.682800 16.113400
						CHANNELS 3 Xrotation Yrotation Zrotation
						End Site
						{
							OFFSET 0.000000 18.567114 0.000000
						}
					}
				}
			}
			JOINT Right_ShortSleeve
			{
				OFFSET -0.265923 -10.480953 1.153800
				CHANNELS 3 Xrotation Yrotation Zrotation
				End Site
				{
					OFFSET -1.725766 19.823910 0.000000
				}
			}
		}
	}
	JOINT Spine
	{
		OFFSET 0.000000 13.368103 0.470500
		CHANNELS 3 Xrotation Yrotation Zrotation
		JOINT Spine1
		{
			OFFSET 0.147000 13.837402 0.538800
			CHANNELS 3 Xrotation Yrotation Zrotation
			JOINT Spine2
			{
				OFFSET 0.168000 16.242897 -1.435500
				CHANNELS 3 Xrotation Yrotation Zrotation
				JOINT Neck
				{
					OFFSET 0.217200 18.631500 -1.679100
					CHANNELS 3 Xrotation Yrotation Zrotation
					JOINT Head
					{
						OFFSET 0.000000 6.599396 1.385900
						CHANNELS 3 Xrotation Yrotation Zrotation
						JOINT Hat
						{
							OFFSET -0.532200 27.220596 -10.096100
							CHANNELS 3 Xrotation Yrotation Zrotation
							End Site
							{
								OFFSET 0.000000 22.029861 0.000000
							}
						}
						JOINT HairD
						{
							OFFSET -10.777400 17.437393 -1.325900
							CHANNELS 3 Xrotation Yrotation Zrotation
							JOINT HairD1
							{
								OFFSET -3.290299 -11.051193 1.062200
								CHANNELS 3 Xrotation Yrotation Zrotation
								End Site
								{
									OFFSET 0.000000 11.579437 0.000000
								}
							}
						}
						JOINT HairB
						{
							OFFSET -10.777400 17.437393 1.467900
							CHANNELS 3 Xrotation Yrotation Zrotation
							JOINT HairB1
							{
								OFFSET -1.561200 -12.956299 3.590200
								CHANNELS 3 Xrotation Yrotation Zrotation
								End Site
								{
									OFFSET 0.000000 13.534866 0.000000
								}
							}
						}
						JOINT HairA
						{
							OFFSET 9.713100 17.437393 1.467900
							CHANNELS 3 Xrotation Yrotation Zrotation
							JOINT HairA1
							{
								OFFSET 1.561200 -12.956299 3.590200
								CHANNELS 3 Xrotation Yrotation Zrotation
								End Site
								{
									OFFSET 0.000000 13.534866 0.000000
								}
							}
						}
						JOINT HairC
						{
							OFFSET 9.713100 17.437393 -1.325900
							CHANNELS 3 Xrotation Yrotation Zrotation
							JOINT HairC1
							{
								OFFSET 3.290300 -11.051193 1.062200
								CHANNELS 3 Xrotation Yrotation Zrotation
								End Site
								{
									OFFSET 0.000000 11.579437 0.000000
								}
							}
						}
					}
				}
				JOINT LeftShoulder
				{
					OFFSET 5.101800 15.108002 -2.763700
					CHANNELS 3 Xrotation Yrotation Zrotation
					JOINT LeftArm
					{
						OFFSET 9.825497 2.506317 -1.597400
						CHANNELS 3 Xrotation Yrotation Zrotation
						JOINT LeftForeArm
						{
							OFFSET 21.966244 0.000000 0.000000
							CHANNELS 3 Xrotation Yrotation Zrotation
							JOINT LeftHand
							{
								OFFSET 33.879036 0.000000 0.000000
								CHANNELS 3 Xrotation Yrotation Zrotation
								JOINT LeftHandThumb1
								{
									OFFSET 6.715286 -2.359680 3.363841
									CHANNELS 3 Xrotation Yrotation Zrotation
									JOINT LeftHandThumb2
									{
										OFFSET 2.507072 -1.447464 1.447461
										CHANNELS 3 Xrotation Yrotation Zrotation
										JOINT LeftHandThumb3
										{
											OFFSET 2.898338 -1.673355 1.673357
											CHANNELS 3 Xrotation Yrotation Zrotation
											End Site
											{
												OFFSET -0.295959 3.727692 -0.131651
											}
										}
									}
								}
								JOINT LeftHandIndex1
								{
									OFFSET 14.190811 -0.254547 3.840278
									CHANNELS 3 Xrotation Yrotation Zrotation
									JOINT LeftHandIndex2
									{
										OFFSET 3.551727 0.000000 -0.000000
										CHANNELS 3 Xrotation Yrotation Zrotation
										JOINT LeftHandIndex3
										{
											OFFSET 2.894196 0.000000 0.000000
											CHANNELS 3 Xrotation Yrotation Zrotation
											End Site
											{
												OFFSET -1.000603 2.690872 0.366626
											}
										}
									}
								}
								JOINT LeftHandMiddle1
								{
									OFFSET 13.776489 0.000000 0.000000
									CHANNELS 3 Xrotation Yrotation Zrotation
									JOINT LeftHandMiddle2
									{
										OFFSET 3.438232 0.000000 0.000000
										CHANNELS 3 Xrotation Yrotation Zrotation
										JOINT LeftHandMiddle3
										{
											OFFSET 3.691551 0.000000 0.000000
											CHANNELS 3 Xrotation Yrotation Zrotation
											End Site
											{
												OFFSET -1.082298 3.499527 0.457670
											}
										}
									}
								}
								JOINT LeftHandRing1
								{
									OFFSET 13.966164 -0.268127 -3.067488
									CHANNELS 3 Xrotation Yrotation Zrotation
									JOINT LeftHandRing2
									{
										OFFSET 3.162567 0.000000 0.000000
										CHANNELS 3 Xrotation Yrotation Zrotation
										JOINT LeftHandRing3
										{
											OFFSET 3.324348 0.000000 0.000000
											CHANNELS 3 Xrotation Yrotation Zrotation
											End Site
											{
												OFFSET -0.861900 3.184998 0.405154
											}
										}
									}
								}
								JOINT LeftHandPinky1
								{
									OFFSET 13.131393 -0.168503 -5.746925
									CHANNELS 3 Xrotation Yrotation Zrotation
									JOINT LeftHandPinky2
									{
										OFFSET 2.849182 0.000000 0.000000
										CHANNELS 3 Xrotation Yrotation Zrotation
										JOINT LeftHandPinky3
										{
											OFFSET 2.805038 0.000000 0.000000
											CHANNELS 3 Xrotation Yrotation Zrotation
											End Site
											{
												OFFSET -0.882500 2.642609 0.325652
											}
										}
									}
								}
							}
							JOINT Left_Sleeve
							{
								OFFSET 6.592125 -0.646545 0.805568
								CHANNELS 3 Xrotation Yrotation Zrotation
								End Site
								{
									OFFSET -0.000179 20.275787 -0.000000
								}
							}
						}
					}
				}
				JOINT RightShoulder
				{
					OFFSET -5.731700 15.108002 -2.763700
					CHANNELS 3 Xrotation Yrotation Zrotation
					JOINT RightArm
					{
						OFFSET -9.825497 2.506317 -1.597400
						CHANNELS 3 Xrotation Yrotation Zrotation
						JOINT RightForeArm
						{
							OFFSET -21.966242 0.000000 0.000000
							CHANNELS 3 Xrotation Yrotation Zrotation
							JOINT RightHand
							{
								OFFSET -33.879032 0.000000 0.000000
								CHANNELS 3 Xrotation Yrotation Zrotation
								JOINT RightHandThumb1
								{
									OFFSET -6.715286 -2.359680 3.363841
									CHANNELS 3 Xrotation Yrotation Zrotation
									JOINT RightHandThumb2
									{
										OFFSET -2.507072 -1.447464 1.447461
										CHANNELS 3 Xrotation Yrotation Zrotation
										JOINT RightHandThumb3
										{
											OFFSET -2.898338 -1.673355 1.673357
											CHANNELS 3 Xrotation Yrotation Zrotation
											End Site
											{
												OFFSET 0.295959 3.727692 -0.131651
											}
										}
									}
								}
								JOINT RightHandIndex1
								{
									OFFSET -14.190811 -0.254547 3.840278
									CHANNELS 3 Xrotation Yrotation Zrotation
									JOINT RightHandIndex2
									{
										OFFSET -3.551727 0.000000 -0.000000
										CHANNELS 3 Xrotation Yrotation Zrotation
										JOINT RightHandIndex3
										{
											OFFSET -2.894196 0.000000 0.000000
											CHANNELS 3 Xrotation Yrotation Zrotation
											End Site
											{
												OFFSET 1.000603 2.690872 0.366626
											}
										}
									}
								}
								JOINT RightHandMiddle1
								{
									OFFSET -13.776489 0.000000 0.000000
									CHANNELS 3 Xrotation Yrotation Zrotation
									JOINT RightHandMiddle2
									{
										OFFSET -3.438232 0.000000 0.000000
										CHANNELS 3 Xrotation Yrotation Zrotation
										JOINT RightHandMiddle3
										{
											OFFSET -3.691551 0.000000 0.000000
											CHANNELS 3 Xrotation Yrotation Zrotation
											End Site
											{
												OFFSET 1.082298 3.499527 0.457670
											}
										}
									}
								}
								JOINT RightHandRing1
								{
									OFFSET -13.966164 -0.268127 -3.067488
									CHANNELS 3 Xrotation Yrotation Zrotation
									JOINT RightHandRing2
									{
										OFFSET -3.162567 0.000000 0.000000
										CHANNELS 3 Xrotation Yrotation Zrotation
										JOINT RightHandRing3
										{
											OFFSET -3.324348 0.000000 0.000000
											CHANNELS 3 Xrotation Yrotation Zrotation
											End Site
											{
												OFFSET 0.861900 3.184998 0.405154
											}
										}
									}
								}
								JOINT RightHandPinky1
								{
									OFFSET -13.131393 -0.168503 -5.746925
									CHANNELS 3 Xrotation Yrotation Zrotation
									JOINT RightHandPinky2
									{
										OFFSET -2.849182 0.000000 0.000000
										CHANNELS 3 Xrotation Yrotation Zrotation
										JOINT RightHandPinky3
										{
											OFFSET -2.805038 0.000000 0.000000
											CHANNELS 3 Xrotation Yrotation Zrotation
											End Site
											{
												OFFSET 0.882500 2.642609 0.325652
											}
										}
									}
								}
							}
							JOINT Right_Sleeve
							{
								OFFSET -6.592125 -0.646545 0.805568
								CHANNELS 3 Xrotation Yrotation Zrotation
								End Site
								{
									OFFSET 0.000179 20.275787 -0.000000
								}
							}
						}
					}
				}
				JOINT Bind_Right_JacketString
				{
					OFFSET -3.534800 11.969597 7.200700
					CHANNELS 3 Xrotation Yrotation Zrotation
					JOINT Bind_Right_JacketString1
					{
						OFFSET -0.319900 -6.102600 2.794100
						CHANNELS 3 Xrotation Yrotation Zrotation
						End Site
						{
							OFFSET 0.000000 6.719452 0.000000
						}
					}
				}
				JOINT Bind_Left_JacketString
				{
					OFFSET 2.904800 11.969597 7.200700
					CHANNELS 3 Xrotation Yrotation Zrotation
					JOINT Bind_Left_JacketString1
					{
						OFFSET 0.364800 -5.904503 3.186800
						CHANNELS 3 Xrotation Yrotation Zrotation
						End Site
						{
							OFFSET 0.000000 6.719513 0.000000
						}
					}
				}
				JOINT HairE
				{
					OFFSET 5.915200 17.612701 -11.592200
					CHANNELS 3 Xrotation Yrotation Zrotation
					JOINT HairE1
					{
						OFFSET 0.289200 -7.171898 -1.284500
						CHANNELS 3 Xrotation Yrotation Zrotation
						End Site
						{
							OFFSET 0.000000 7.291756 0.000000
						}
					}
				}
				JOINT HairF
				{
					OFFSET -0.864800 17.612701 -11.592200
					CHANNELS 3 Xrotation Yrotation Zrotation
					JOINT HairF1
					{
						OFFSET 0.000000 -14.087097 -2.127501
						CHANNELS 3 Xrotation Yrotation Zrotation
						End Site
						{
							OFFSET 0.000000 14.246841 0.000000
						}
					}
				}
				JOINT HairG
				{
					OFFSET -8.087700 17.612701 -11.592200
					CHANNELS 3 Xrotation Yrotation Zrotation
					JOINT HairG1
					{
						OFFSET -0.293600 -6.081398 -0.910100
						CHANNELS 3 Xrotation Yrotation Zrotation
						End Site
						{
							OFFSET 0.000000 6.156120 0.000000
						}
					}
				}
			}
		}
	}
	JOINT Pouch
	{
		OFFSET 0.000000 4.394501 10.847300
		CHANNELS 3 Xrotation Yrotation Zrotation
		End Site
		{
			OFFSET 0.000000 21.880577 0.000000
		}
	}
	JOINT Bag
	{
		OFFSET -13.229000 4.813004 -0.593300
		CHANNELS 3 Xrotation Yrotation Zrotation
		End Site
		{
			OFFSET 0.000000 21.880577 0.000000
		}
	}
	JOINT OccupyGuyFacialAnim_Joint
	{
		OFFSET 1.000000 -70.206398 -1.655000
		CHANNELS 3 Xrotation Yrotation Zrotation
		End Site
		{
			OFFSET 0.000000 21.880577 0.000000
		}
	}
}
MOTION
Frames: 4
Frame Time: 0.016667
-0.628828 47.508911 4.423314 38.754408 -53.657782 30.982728 -0.000001 0.000001 -0.000001 -79.140425 -6.580074 27.734246 96.703218 -12.416327 1.151919 -37.244086 0.915850 -11.602209 0.000000 0.000002 0.000000 0.000002 0.000001 -0.000005 -81.400624 -5.356481 -32.005044 98.910121 6.705317 0.933195 -37.970196 -1.849834 8.231113 0.000000 0.000000 0.000000 0.000000 -0.000001 -0.000000 8.241407 -2.043603 -2.674980 3.591993 -3.361492 -2.519242 3.576404 -3.306023 -2.583292 -4.843168 17.213132 -6.645896 -39.838707 36.524385 9.074942 0.000000 -0.000000 -0.000000 0.000000 -0.000000 -0.000000 0.000000 -0.000000 -0.000000 0.000000 -0.000000 -0.000000 0.000000 -0.000000 -0.000000 0.000000 -0.000000 -0.000000 0.000000 -0.000000 -0.000000 0.000000 -0.000000 -0.000000 0.000000 -0.000000 -0.000000 5.547262 -8.009820 -6.640975 -64.034287 1.869226 -22.502839 21.515676 -29.366812 16.956520 -2.616378 -8.068162 2.194879 40.109948 -15.297124 -0.360510 5.639824 28.097914 11.338838 -0.000001 -0.000001 -0.000000 6.880139 2.821213 -61.138608 8.247989 7.640049 -89.897878 0.000002 0.000001 0.000002 -2.344770 4.689032 -62.667880 8.755263 9.896955 -87.054688 0.000002 0.000001 0.000001 -9.042453 10.045635 -60.766171 8.524162 9.509030 -66.902550 -0.000001 0.000002 -0.000002 -17.946903 14.755015 -51.485853 8.862311 8.673548 -84.822384 -0.000000 0.000000 -0.000001 0.000001 0.000001 0.000001 5.583201 9.006408 15.903908 -10.769851 1.892037 48.290841 -18.711327 38.477225 8.552184 6.179194 2.978102 -16.977724 -6.830676 -6.304596 5.093512 1.899676 -22.662940 -8.729818 -0.000000 0.000000 -0.000003 -0.976048 0.915620 -2.034111 0.028887 -0.078698 8.598525 0.000002 0.000000 -0.000001 1.418798 -6.781364 2.948459 1.033168 -4.271108 20.381534 -0.000004 -0.000001 -0.000001 -5.862026 -13.951763 7.701495 1.592892 -4.798649 20.257207 -0.000001 0.000001 0.000002 -5.934305 -14.361617 26.354223 2.930748 -2.669610 12.240945 -0.000001 0.000003 -0.000003 0.000001 0.000000 0.000001 -0.000001 -0.000002 0.000003 -0.000003 -0.000001 0.000001 -0.000001 -0.000002 0.000003 -0.000001 -0.000002 0.000003 -0.000001 -0.000002 0.000003 -0.000003 -0.000001 0.000001 -0.000001 -0.000002 0.000003 -0.000001 -0.000002 0.000003 -0.000001 -0.000002 0.000003 -0.000003 -0.000001 0.000001 -0.000001 0.000001 -0.000001 -0.000001 0.000001 -0.000001 -0.000001 0.000001 -0.000001 
-0.445282 46.421509 4.060519 39.359341 -53.498427 31.339220 0.000001 0.000000 -0.000000 -81.257511 -7.948419 28.249779 98.921247 -12.921797 1.115060 -37.397164 0.847531 -11.823616 -0.000000 0.000000 -0.000000 0.000001 -0.000000 -0.000003 -83.799550 -4.900922 -32.469066 101.491857 7.292395 0.908270 -38.424827 -1.710520 7.550369 0.000000 0.000000 -0.000000 0.000000 -0.000000 -0.000000 7.955809 -1.965343 -2.579495 3.758346 -3.279249 -2.496419 3.743203 -3.226206 -2.558059 -4.149929 17.553323 -7.160891 -39.823049 36.047187 8.584221 0.000000 -0.000000 0.000000 0.000000 -0.000000 0.000000 0.000000 -0.000000 0.000000 0.000000 -0.000000 0.000000 0.000000 0.000000 -0.000000 0.000000 -0.000000 0.000000 0.000000 0.000000 -0.000000 0.000000 -0.000000 0.000000 0.000000 -0.000000 0.000000 5.745036 -8.108526 -6.895807 -64.657030 0.940659 -22.490088 22.078540 -28.805701 16.993208 -2.188436 -8.346537 1.944095 40.109951 -15.297122 -0.360508 5.639831 28.097916 11.338842 0.000001 0.000002 -0.000000 6.879337 2.813774 -61.137877 8.247988 7.640045 -89.897878 -0.000000 -0.000001 -0.000002 -2.346727 4.689022 -62.672805 8.755147 9.896995 -87.054470 -0.000003 -0.000001 -0.000001 -9.042454 10.045633 -60.766171 8.524217 9.509105 -66.906211 -0.000002 0.000001 -0.000002 -17.946904 14.755012 -51.485853 8.862083 8.673812 -84.826687 -0.000000 0.000000 0.000001 -0.000001 -0.000001 0.000000 5.819243 9.101610 16.094144 -10.347736 2.384192 47.454440 -19.056455 39.289639 8.937013 5.144264 3.543856 -17.909681 -7.273784 -5.961004 4.974729 1.807464 -22.244881 -8.652290 -0.000000 -0.000002 -0.000002 -0.859999 0.831750 -2.769306 0.027986 -0.078715 7.696501 0.000001 0.000000 0.000000 1.401313 -6.841167 1.747789 0.975761 -4.290832 19.317650 -0.000001 0.000001 -0.000001 -5.234658 -14.009301 5.961771 1.421472 -4.592403 19.068146 0.000004 0.000000 -0.000002 -6.123057 -14.120955 22.999702 2.904568 -2.693760 11.162804 0.000002 0.000001 0.000002 0.000000 0.000000 0.000002 0.000000 0.000001 0.000001 -0.000000 0.000002 -0.000001 0.000000 0.000001 0.000001 0.000000 0.000001 0.000001 0.000000 0.000001 0.000001 -0.000000 0.000002 -0.000001 0.000000 0.000001 0.000001 0.000000 0.000001 0.000001 0.000000 0.000001 0.000001 -0.000000 0.000002 -0.000001 0.000001 0.000000 -0.000000 0.000001 0.000000 -0.000000 0.000001 0.000000 -0.000000 
-0.265734 45.361183 3.714897 39.907965 -53.402548 31.710823 -0.000000 0.000001 -0.000001 -83.242849 -9.250690 28.754168 101.019119 -13.411123 1.079339 -37.490181 0.765527 -12.057413 0.000000 0.000000 -0.000000 -0.000000 0.000004 -0.000001 -86.178170 -4.306850 -32.922127 103.973381 7.965613 0.862872 -38.416262 -1.632441 7.019683 -0.000000 0.000000 0.000000 0.000001 -0.000001 -0.000000 7.661074 -1.878745 -2.500093 3.920443 -3.180468 -2.492622 3.905903 -3.129781 -2.551258 -3.463307 17.929189 -7.697884 -39.698115 35.578602 8.116828 0.000000 0.000000 0.000000 0.000000 0.000000 0.000000 0.000000 0.000000 0.000000 0.000000 0.000000 0.000000 0.000000 0.000000 0.000000 0.000000 0.000000 0.000000 0.000000 0.000000 0.000000 0.000000 0.000000 0.000000 0.000000 0.000000 0.000000 5.951877 -8.061986 -6.968058 -65.208574 0.226341 -22.718879 22.758006 -28.220332 17.107337 -1.837084 -8.526897 1.949950 40.109948 -15.297120 -0.360507 5.639825 28.097914 11.338841 0.000001 -0.000000 -0.000001 6.878502 2.806608 -61.137180 8.247988 7.640041 -89.897871 0.000002 -0.000000 -0.000004 -2.348142 4.689096 -62.677654 8.755058 9.896941 -87.054299 -0.000000 0.000001 -0.000001 -9.042454 10.045635 -60.766171 8.524223 9.509207 -66.909865 -0.000002 0.000002 -0.000004 -17.946903 14.755015 -51.485850 8.861924 8.674114 -84.830813 -0.000000 0.000001 -0.000000 -0.000004 0.000000 -0.000001 6.023425 9.139916 16.277674 -9.808080 2.869012 46.606349 -19.217613 39.891426 9.114128 4.158424 3.984957 -18.528404 -7.704056 -5.623301 4.866710 1.718632 -21.838338 -8.576008 -0.000002 -0.000001 -0.000000 -0.751781 0.746893 -3.402917 0.027162 -0.078821 6.886466 0.000002 -0.000000 0.000004 1.379477 -6.896996 0.604296 0.922515 -4.308987 18.305600 0.000003 0.000002 0.000001 -4.598588 -14.115960 4.200479 1.257786 -4.370506 17.870669 0.000002 0.000001 0.000001 -6.286747 -13.898211 19.326218 2.878213 -2.716649 9.974138 0.000001 0.000001 0.000002 -0.000003 0.000001 0.000001 -0.000001 0.000002 -0.000001 -0.000002 0.000000 -0.000000 -0.000001 0.000002 -0.000001 -0.000001 0.000002 -0.000001 -0.000001 0.000002 -0.000001 -0.000002 0.000000 -0.000000 -0.000001 0.000002 -0.000001 -0.000001 0.000002 -0.000001 -0.000001 0.000002 -0.000001 -0.000002 0.000000 -0.000000 -0.000000 0.000001 -0.000001 -0.000000 0.000001 -0.000001 -0.000000 0.000001 -0.000001 
-0.088503 44.315674 3.372984 40.451078 -53.334219 32.089472 0.000000 -0.000000 -0.000001 -85.177158 -10.560197 29.266015 103.020631 -13.906848 1.043649 -37.505446 0.667473 -12.307133 0.000000 0.000002 0.000000 -0.000001 -0.000001 0.000000 -88.586713 -3.662090 -33.182312 106.439940 8.345035 0.779163 -38.256607 -1.511072 6.391805 0.000000 -0.000000 0.000000 -0.000001 -0.000000 0.000000 7.362153 -1.786471 -2.424247 4.076456 -3.077108 -2.496181 4.062608 -3.028784 -2.551572 -2.778651 18.321550 -8.229653 -39.519314 35.119258 7.656167 -0.000000 -0.000000 -0.000000 -0.000000 -0.000000 -0.000000 -0.000000 -0.000000 -0.000000 -0.000000 -0.000000 -0.000000 -0.000000 -0.000000 -0.000000 -0.000000 -0.000000 -0.000000 -0.000000 -0.000000 -0.000000 -0.000000 -0.000000 -0.000000 -0.000000 -0.000000 -0.000000 6.122417 -8.035486 -6.996220 -65.715852 -0.383005 -22.932790 23.412090 -27.614407 17.207461 -1.507596 -8.660991 1.990329 40.109951 -15.297122 -0.360510 5.639826 28.097914 11.338841 0.000001 0.000001 -0.000001 6.877778 2.799604 -61.136463 8.247988 7.640044 -89.897871 0.000003 0.000000 -0.000004 -2.348846 4.689098 -62.682374 8.754988 9.896979 -87.054033 0.000001 0.000001 -0.000001 -9.042449 10.045634 -60.766171 8.524212 9.509284 -66.913710 -0.000001 0.000001 0.000001 -17.946904 14.755017 -51.485850 8.861693 8.674437 -84.834945 0.000002 0.000000 0.000001 0.000002 0.000001 0.000001 6.224914 9.159313 16.434215 -9.202614 3.322518 45.736746 -19.298985 40.213890 9.212693 3.214246 4.447911 -18.922692 -8.110753 -5.297894 4.771006 1.635687 -21.450134 -8.501642 -0.000000 -0.000001 -0.000001 -0.653788 0.663556 -3.905964 0.026724 -0.078768 6.195275 0.000000 -0.000003 -0.000002 1.354100 -6.946218 -0.446404 0.875434 -4.325234 17.387384 0.000001 0.000002 -0.000006 -3.971856 -14.268004 2.470768 1.106187 -4.136332 16.709334 0.000001 0.000000 -0.000000 -6.424693 -13.717948 15.482272 2.853916 -2.736943 8.736598 -0.000002 0.000001 0.000001 0.000001 -0.000001 0.000001 0.000003 0.000002 0.000002 0.000000 0.000000 0.000002 0.000003 0.000002 0.000002 0.000003 0.000002 0.000002 0.000003 0.000002 0.000002 0.000000 0.000000 0.000003 0.000003 0.000002 0.000002 0.000003 0.000002 0.000002 0.000003 0.000002 0.000002 0.000000 0.000000 0.000003 0.000000 -0.000000 -0.000001 0.000000 -0.000000 -0.000001 0.000000 -0.000000 -0.000001 
